<?xml version="1.0" encoding="UTF-8"?>
<svg version="1.1" xmlns="http://www.w3.org/2000/svg" width="64" height="64">
<path d="M0 0 C6.02677796 3.69255543 11.53126135 9.7518763 13.5625 16.5625 C14.24071796 23.60492602 14.85582109 31.54290987 11.03125 37.78515625 C5.84874551 44.05653801 0.38589338 49.09798507 -7.92578125 49.8984375 C-16.75159981 49.98858886 -23.0259024 49.79258285 -29.62109375 43.46875 C-36.59808071 36.00673186 -38.03489348 30.40197522 -37.73828125 20.2265625 C-37.04253901 11.75115699 -33.00211092 7.68151684 -26.75390625 2.2265625 C-19.65449335 -2.87352164 -8.05245173 -3.51292217 0 0 Z " fill="#00639D" transform="translate(42.4375,6.4375)"/>
<path d="M0 0 C7.05882353 -0.35294118 7.05882353 -0.35294118 10.5 0.9375 C12.62080763 3.8536105 12.4394792 6.31248036 12.43359375 9.84375 C11.89289469 12.53263181 11.24427316 13.43596008 9 15 C6.73828125 15.29296875 6.73828125 15.29296875 4.3125 15.1875 C2.889375 15.125625 1.46625 15.06375 0 15 C0 10.05 0 5.1 0 0 Z " fill="#001725" transform="translate(18,22)"/>
<path d="M0 0 C7.39954511 -0.36391205 7.39954511 -0.36391205 10.0625 1.25 C11 3 11 3 10.625 5.125 C10.41875 5.74375 10.2125 6.3625 10 7 C10.33 7.33 10.66 7.66 11 8 C11.1875 10.4375 11.1875 10.4375 11 13 C9 15 9 15 6.8359375 15.1953125 C4.55729167 15.13020833 2.27864583 15.06510417 0 15 C0 10.05 0 5.1 0 0 Z " fill="#003D60" transform="translate(32,22)"/>
<path d="M0 0 C2.64 0 5.28 0 8 0 C8 0.66 8 1.32 8 2 C6.02 2 4.04 2 2 2 C2 3.65 2 5.3 2 7 C3.65 7 5.3 7 7 7 C7 7.33 7 7.66 7 8 C5.35 8 3.7 8 2 8 C2 9.65 2 11.3 2 13 C3.98 12.67 5.96 12.34 8 12 C8 10.35 8 8.7 8 7 C8.99 7.33 9.98 7.66 11 8 C11.125 10.375 11.125 10.375 11 13 C9 15 9 15 6.8359375 15.1953125 C4.55729167 15.13020833 2.27864583 15.06510417 0 15 C0 10.05 0 5.1 0 0 Z " fill="#00131F" transform="translate(32,22)"/>
<path d="M0 0 C1.99954746 -0.04254356 4.00041636 -0.04080783 6 0 C7 1 7 1 7.1875 4.4375 C7 8 7 8 5 10 C3.35 10 1.7 10 0 10 C0 6.7 0 3.4 0 0 Z " fill="#0070B1" transform="translate(21,25)"/>
<path d="M0 0 C0.99 0.33 1.98 0.66 3 1 C3.125 3.375 3.125 3.375 3 6 C2.34 6.66 1.68 7.32 1 8 C-2.125 7.625 -2.125 7.625 -5 7 C-5 6.67 -5 6.34 -5 6 C-3.35 5.67 -1.7 5.34 0 5 C0 3.35 0 1.7 0 0 Z " fill="#00080D" transform="translate(40,29)"/>
<path d="M0 0 C1.98 0 3.96 0 6 0 C5.67 1.32 5.34 2.64 5 4 C3.35 4 1.7 4 0 4 C0 2.68 0 1.36 0 0 Z " fill="#0070B0" transform="translate(35,31)"/>
</svg>
